<?xml version="1.0" standalone="no"?>
<!DOCTYPE svg PUBLIC "-//W3C//DTD SVG 20010904//EN"
 "http://www.w3.org/TR/2001/REC-SVG-20010904/DTD/svg10.dtd">
<svg version="1.0" xmlns="http://www.w3.org/2000/svg"
 width="1152.000000pt" height="1152.000000pt" viewBox="0 0 1152.000000 1152.000000"
 preserveAspectRatio="xMidYMid meet">
<metadata>
Created by potrace 1.14, written by Peter Selinger 2001-2017
</metadata>
<g transform="translate(0.000000,1152.000000) scale(0.100000,-0.100000)"
fill="#000000" stroke="none">
<path d="M6234 11493 c-4 -16 -10 -33 -15 -38 -4 -6 -10 -23 -13 -38 -3 -16
-16 -63 -29 -105 -14 -42 -35 -111 -47 -152 -34 -114 -93 -308 -181 -588 -22
-73 -42 -138 -43 -145 -1 -7 -16 -57 -34 -112 -38 -121 -106 -344 -134 -440
-11 -38 -26 -86 -33 -105 -7 -19 -20 -62 -30 -95 -9 -33 -30 -103 -47 -155
-17 -52 -31 -99 -32 -105 -9 -37 -28 -103 -36 -120 -6 -11 -12 -29 -13 -40 -2
-11 -7 -27 -10 -35 -10 -26 -27 -86 -32 -110 -2 -12 -9 -28 -15 -34 -5 -7 -7
-16 -4 -19 3 -3 2 -12 -2 -19 -5 -7 -9 -17 -10 -23 -1 -5 -21 -71 -44 -145
-23 -74 -54 -178 -70 -230 -16 -52 -45 -147 -65 -210 -19 -63 -37 -122 -39
-130 -3 -8 -23 -76 -46 -150 -22 -74 -52 -173 -66 -220 -14 -47 -30 -96 -35
-110 -8 -23 -65 -210 -155 -510 -19 -63 -37 -121 -39 -128 -2 -7 -5 -14 -5
-17 0 -3 -8 -24 -16 -47 -9 -24 -17 -52 -19 -63 -2 -11 -15 -56 -30 -100 -14
-44 -28 -91 -31 -104 -3 -13 -9 -31 -13 -40 -5 -9 -9 -18 -9 -21 1 -7 -4 -24
-43 -150 -19 -58 -34 -107 -34 -110 -1 -5 -30 -100 -51 -166 -7 -22 -31 -103
-54 -180 -22 -76 -44 -146 -47 -154 -3 -8 -7 -19 -8 -25 -1 -5 -10 -31 -19
-57 -8 -26 -18 -62 -21 -78 -3 -17 -10 -39 -15 -48 -7 -13 -112 -357 -125
-407 -1 -5 -5 -17 -8 -25 -3 -8 -11 -33 -17 -55 -6 -22 -14 -47 -17 -55 -8
-19 -7 -18 -17 -60 -5 -19 -13 -41 -18 -47 -6 -7 -8 -13 -5 -13 3 0 -4 -28
-15 -62 -34 -108 -99 -319 -124 -408 -14 -47 -28 -92 -31 -100 -3 -8 -7 -20
-8 -26 -2 -6 -15 -51 -31 -100 -15 -49 -29 -91 -29 -94 -1 -5 -21 -72 -78
-255 -17 -55 -32 -103 -33 -107 -1 -5 -2 -9 -4 -10 -1 -2 -3 -10 -5 -18 -9
-36 -17 -64 -66 -220 -85 -277 -121 -394 -125 -414 -2 -10 -8 -24 -14 -30 -5
-7 -7 -16 -3 -19 3 -4 0 -13 -7 -22 -7 -8 -10 -15 -7 -15 3 0 -3 -26 -14 -57
-11 -32 -22 -65 -24 -73 -1 -8 -38 -127 -80 -265 -42 -137 -83 -270 -90 -295
-7 -25 -23 -76 -35 -114 -12 -38 -23 -76 -25 -85 -2 -9 -10 -36 -18 -61 -25
-75 -161 -520 -172 -560 -2 -8 -24 -80 -50 -160 -25 -80 -47 -152 -49 -160 -2
-8 -7 -28 -11 -45 -4 -16 -10 -34 -14 -40 -3 -5 -6 -14 -7 -20 -1 -5 -13 -48
-28 -95 -14 -47 -26 -88 -26 -93 0 -4 -6 -23 -14 -42 -9 -20 -16 -39 -16 -43
-1 -4 -11 -38 -23 -77 -12 -38 -22 -73 -23 -77 -1 -5 -2 -9 -4 -10 -1 -2 -3
-10 -5 -18 -5 -20 -28 -96 -114 -375 -39 -126 -74 -241 -77 -254 -3 -13 -11
-39 -19 -57 -8 -19 -12 -34 -10 -34 2 0 -7 -32 -21 -72 -13 -39 -24 -73 -24
-75 0 -2 576 -3 1280 -3 l1280 0 6 28 c4 15 10 32 14 37 4 6 10 24 14 40 4 17
17 64 30 105 13 41 34 109 46 150 34 113 92 304 180 586 22 71 42 139 45 150
2 10 12 46 23 79 22 68 66 207 67 215 1 6 36 122 83 270 20 63 37 121 39 128
7 27 11 40 33 112 14 41 25 77 25 80 3 13 47 159 59 195 8 22 33 103 56 180
23 77 44 147 47 155 3 8 7 20 8 25 2 6 14 47 28 93 14 45 22 82 19 82 -4 0 -2
4 3 8 6 4 16 27 23 52 7 25 14 50 16 55 9 31 30 101 31 105 12 47 47 155 63
200 3 8 6 20 8 27 1 7 9 34 17 60 18 58 61 196 62 203 7 32 28 99 35 115 7 16
28 83 35 115 0 3 6 21 12 40 25 77 84 269 88 286 2 11 8 33 14 49 18 51 53
165 55 178 1 7 4 17 8 22 3 6 9 26 13 45 4 19 10 40 14 45 3 6 6 12 6 15 3 21
19 77 23 85 4 6 7 15 8 20 1 6 14 51 30 100 15 50 29 95 30 100 1 6 17 55 34
110 17 55 33 107 35 115 2 8 10 35 18 60 21 63 72 231 97 320 12 41 25 84 30
95 5 11 21 61 35 110 41 138 59 200 100 330 20 66 38 127 41 135 2 8 17 60 34
115 18 55 38 120 45 145 7 25 27 90 45 145 17 55 33 107 35 115 2 8 24 83 50
165 25 83 60 195 76 250 65 213 80 261 86 275 3 8 7 20 8 25 1 6 3 12 4 15 2
3 4 12 6 20 2 14 30 107 90 300 40 129 102 332 125 410 12 41 25 84 30 95 7
16 28 85 35 115 2 10 106 349 138 450 6 19 12 37 12 40 1 4 17 58 31 105 2 6
9 30 16 55 7 25 15 47 18 50 3 3 7 14 8 25 2 11 15 56 29 100 14 44 27 87 28
95 2 8 4 15 5 15 1 0 3 7 5 15 1 8 10 38 20 65 9 28 18 57 20 65 2 8 15 51 28
95 73 234 102 329 129 420 16 55 32 107 35 115 4 8 7 17 8 20 0 3 9 32 19 65
10 33 19 65 21 70 1 6 5 17 8 25 5 12 21 68 33 113 1 4 3 10 4 15 2 4 4 12 5
17 1 6 5 17 8 25 6 14 20 56 78 250 11 36 22 72 24 80 2 8 17 58 33 110 41
130 94 301 97 314 1 6 5 18 8 26 3 8 13 42 22 75 9 33 20 69 25 80 8 17 27 81
36 120 1 6 9 30 17 55 9 25 27 83 41 130 13 47 27 93 31 103 7 16 -58 17
-1274 17 l-1281 0 -6 -27z"/>
</g>
</svg>
