<?xml version="1.0" standalone="no"?>
<!DOCTYPE svg PUBLIC "-//W3C//DTD SVG 20010904//EN"
 "http://www.w3.org/TR/2001/REC-SVG-20010904/DTD/svg10.dtd">
<svg version="1.0" xmlns="http://www.w3.org/2000/svg"
 width="700.000000pt" height="700.000000pt" viewBox="0 0 700.000000 700.000000"
 preserveAspectRatio="xMidYMid meet">
<metadata>
Created by potrace 1.14, written by Peter Selinger 2001-2017
</metadata>
<g transform="translate(0.000000,700.000000) scale(0.100000,-0.100000)"
fill="#000000" stroke="none">
<path d="M3796 6780 l-80 -5 -28 -95 c-16 -52 -44 -147 -63 -210 -18 -63 -64
-214 -100 -335 -37 -121 -78 -256 -90 -300 -28 -94 -63 -212 -140 -465 -60
-198 -108 -359 -160 -535 -18 -60 -53 -177 -78 -260 -25 -82 -50 -166 -55
-185 -6 -19 -22 -73 -37 -120 -14 -47 -28 -92 -30 -100 -2 -8 -20 -67 -39
-130 -19 -63 -62 -207 -96 -320 -34 -113 -91 -302 -126 -420 -36 -118 -66
-219 -68 -225 -1 -5 -9 -30 -16 -55 -7 -25 -15 -49 -16 -55 -8 -30 -35 -119
-54 -180 -12 -38 -32 -106 -45 -150 -38 -129 -81 -272 -119 -395 -19 -63 -46
-153 -60 -200 -13 -47 -57 -191 -96 -320 -39 -129 -72 -242 -74 -250 -3 -8
-33 -112 -69 -230 -36 -118 -70 -231 -75 -250 -6 -19 -49 -163 -97 -320 -124
-412 -134 -445 -131 -448 7 -7 1520 -2 1526 5 4 4 16 40 28 78 169 563 295
983 297 995 2 8 38 128 80 265 42 138 91 302 110 365 71 241 255 857 269 900
8 25 76 250 151 500 75 250 147 491 160 535 81 263 148 487 159 530 8 28 30
104 51 170 20 66 47 156 60 200 13 44 46 157 74 250 29 94 63 208 77 255 14
47 39 128 55 180 80 262 151 500 163 545 8 28 63 214 124 415 61 201 109 366
108 368 -6 5 -1370 7 -1450 2z"/>
</g>
</svg>
