<svg width="123" height="36" viewBox="0 0 123 36" fill="none" xmlns="http://www.w3.org/2000/svg">
<path d="M29.5117 19.2832H32.4316C32.373 20.2402 32.1094 21.0898 31.6406 21.832C31.1784 22.5742 30.5306 23.1536 29.6973 23.5703C28.8704 23.987 27.8743 24.1953 26.709 24.1953C25.7975 24.1953 24.9805 24.0391 24.2578 23.7266C23.5352 23.4076 22.9167 22.9518 22.4023 22.3594C21.8945 21.7669 21.5072 21.0508 21.2402 20.2109C20.9733 19.3711 20.8398 18.4303 20.8398 17.3887V16.4023C20.8398 15.3607 20.9766 14.4199 21.25 13.5801C21.5299 12.7337 21.9271 12.0143 22.4414 11.4219C22.9622 10.8294 23.584 10.3737 24.3066 10.0547C25.0293 9.73568 25.8366 9.57617 26.7285 9.57617C27.9134 9.57617 28.9128 9.79102 29.7266 10.2207C30.5469 10.6504 31.1816 11.2428 31.6309 11.998C32.0866 12.7533 32.36 13.6126 32.4512 14.5762H29.5215C29.4889 14.0033 29.375 13.5182 29.1797 13.1211C28.9844 12.7174 28.6882 12.4147 28.291 12.2129C27.9004 12.0046 27.3796 11.9004 26.7285 11.9004C26.2402 11.9004 25.8138 11.9915 25.4492 12.1738C25.0846 12.3561 24.7786 12.6328 24.5312 13.0039C24.2839 13.375 24.0983 13.8438 23.9746 14.4102C23.8574 14.9701 23.7988 15.6276 23.7988 16.3828V17.3887C23.7988 18.1243 23.8542 18.7721 23.9648 19.332C24.0755 19.8854 24.2448 20.3542 24.4727 20.7383C24.707 21.1159 25.0065 21.4023 25.3711 21.5977C25.7422 21.7865 26.1882 21.8809 26.709 21.8809C27.321 21.8809 27.8255 21.7832 28.2227 21.5879C28.6198 21.3926 28.9225 21.1029 29.1309 20.7188C29.3457 20.3346 29.4727 19.8561 29.5117 19.2832ZM33.7305 18.8242V18.6191C33.7305 17.8444 33.8411 17.1315 34.0625 16.4805C34.2839 15.8229 34.6061 15.2533 35.0293 14.7715C35.4525 14.2897 35.9733 13.9154 36.5918 13.6484C37.2103 13.375 37.9199 13.2383 38.7207 13.2383C39.5215 13.2383 40.2344 13.375 40.8594 13.6484C41.4844 13.9154 42.0085 14.2897 42.4316 14.7715C42.8613 15.2533 43.1868 15.8229 43.4082 16.4805C43.6296 17.1315 43.7402 17.8444 43.7402 18.6191V18.8242C43.7402 19.5924 43.6296 20.3053 43.4082 20.9629C43.1868 21.6139 42.8613 22.1836 42.4316 22.6719C42.0085 23.1536 41.4876 23.528 40.8691 23.7949C40.2507 24.0618 39.541 24.1953 38.7402 24.1953C37.9395 24.1953 37.2266 24.0618 36.6016 23.7949C35.9831 23.528 35.459 23.1536 35.0293 22.6719C34.6061 22.1836 34.2839 21.6139 34.0625 20.9629C33.8411 20.3053 33.7305 19.5924 33.7305 18.8242ZM36.543 18.6191V18.8242C36.543 19.2669 36.582 19.6803 36.6602 20.0645C36.7383 20.4486 36.862 20.7871 37.0312 21.0801C37.207 21.3665 37.4349 21.5911 37.7148 21.7539C37.9948 21.9167 38.3366 21.998 38.7402 21.998C39.1309 21.998 39.4661 21.9167 39.7461 21.7539C40.026 21.5911 40.2507 21.3665 40.4199 21.0801C40.5892 20.7871 40.7129 20.4486 40.791 20.0645C40.8757 19.6803 40.918 19.2669 40.918 18.8242V18.6191C40.918 18.1895 40.8757 17.7858 40.791 17.4082C40.7129 17.0241 40.5859 16.6855 40.4102 16.3926C40.2409 16.0931 40.0163 15.8587 39.7363 15.6895C39.4564 15.5202 39.1178 15.4355 38.7207 15.4355C38.3236 15.4355 37.985 15.5202 37.7051 15.6895C37.4316 15.8587 37.207 16.0931 37.0312 16.3926C36.862 16.6855 36.7383 17.0241 36.6602 17.4082C36.582 17.7858 36.543 18.1895 36.543 18.6191ZM48.2812 15.6211V24H45.459V13.4336H48.1055L48.2812 15.6211ZM47.8906 18.3457H47.1094C47.1094 17.61 47.1973 16.9329 47.373 16.3145C47.5553 15.6895 47.819 15.1491 48.1641 14.6934C48.5156 14.2311 48.9486 13.873 49.4629 13.6191C49.9772 13.3652 50.5729 13.2383 51.25 13.2383C51.7188 13.2383 52.1484 13.3099 52.5391 13.4531C52.9297 13.5898 53.265 13.8079 53.5449 14.1074C53.8314 14.4004 54.0527 14.7845 54.209 15.2598C54.3652 15.7285 54.4434 16.2917 54.4434 16.9492V24H51.6309V17.2617C51.6309 16.7799 51.5658 16.4089 51.4355 16.1484C51.3053 15.888 51.1198 15.7057 50.8789 15.6016C50.6445 15.4974 50.3613 15.4453 50.0293 15.4453C49.6647 15.4453 49.3457 15.5202 49.0723 15.6699C48.8053 15.8197 48.584 16.028 48.4082 16.2949C48.2324 16.5553 48.1022 16.8613 48.0176 17.2129C47.9329 17.5645 47.8906 17.9421 47.8906 18.3457ZM54.1797 18.0234L53.1738 18.1504C53.1738 17.4603 53.2585 16.819 53.4277 16.2266C53.6035 15.6341 53.8607 15.1133 54.1992 14.6641C54.5443 14.2148 54.9707 13.8665 55.4785 13.6191C55.9863 13.3652 56.5723 13.2383 57.2363 13.2383C57.7441 13.2383 58.2064 13.3132 58.623 13.4629C59.0397 13.6061 59.3945 13.8372 59.6875 14.1562C59.987 14.4688 60.2148 14.8789 60.3711 15.3867C60.5339 15.8945 60.6152 16.5163 60.6152 17.252V24H57.793V17.252C57.793 16.7637 57.7279 16.3926 57.5977 16.1387C57.474 15.8783 57.2917 15.6992 57.0508 15.6016C56.8164 15.4974 56.5365 15.4453 56.2109 15.4453C55.8724 15.4453 55.5762 15.5137 55.3223 15.6504C55.0684 15.7806 54.8568 15.9629 54.6875 16.1973C54.5182 16.4316 54.3913 16.7051 54.3066 17.0176C54.222 17.3236 54.1797 17.6589 54.1797 18.0234ZM65.6055 15.6211V24H62.7832V13.4336H65.4297L65.6055 15.6211ZM65.2148 18.3457H64.4336C64.4336 17.61 64.5215 16.9329 64.6973 16.3145C64.8796 15.6895 65.1432 15.1491 65.4883 14.6934C65.8398 14.2311 66.2728 13.873 66.7871 13.6191C67.3014 13.3652 67.8971 13.2383 68.5742 13.2383C69.043 13.2383 69.4727 13.3099 69.8633 13.4531C70.2539 13.5898 70.5892 13.8079 70.8691 14.1074C71.1556 14.4004 71.377 14.7845 71.5332 15.2598C71.6895 15.7285 71.7676 16.2917 71.7676 16.9492V24H68.9551V17.2617C68.9551 16.7799 68.89 16.4089 68.7598 16.1484C68.6296 15.888 68.444 15.7057 68.2031 15.6016C67.9688 15.4974 67.6855 15.4453 67.3535 15.4453C66.9889 15.4453 66.6699 15.5202 66.3965 15.6699C66.1296 15.8197 65.9082 16.028 65.7324 16.2949C65.5566 16.5553 65.4264 16.8613 65.3418 17.2129C65.2572 17.5645 65.2148 17.9421 65.2148 18.3457ZM71.5039 18.0234L70.498 18.1504C70.498 17.4603 70.5827 16.819 70.752 16.2266C70.9277 15.6341 71.1849 15.1133 71.5234 14.6641C71.8685 14.2148 72.2949 13.8665 72.8027 13.6191C73.3105 13.3652 73.8965 13.2383 74.5605 13.2383C75.0684 13.2383 75.5306 13.3132 75.9473 13.4629C76.3639 13.6061 76.7188 13.8372 77.0117 14.1562C77.3112 14.4688 77.5391 14.8789 77.6953 15.3867C77.8581 15.8945 77.9395 16.5163 77.9395 17.252V24H75.1172V17.252C75.1172 16.7637 75.0521 16.3926 74.9219 16.1387C74.7982 15.8783 74.6159 15.6992 74.375 15.6016C74.1406 15.4974 73.8607 15.4453 73.5352 15.4453C73.1966 15.4453 72.9004 15.5137 72.6465 15.6504C72.3926 15.7806 72.181 15.9629 72.0117 16.1973C71.8424 16.4316 71.7155 16.7051 71.6309 17.0176C71.5462 17.3236 71.5039 17.6589 71.5039 18.0234ZM85.8203 21.6172V16.9102C85.8203 16.5716 85.765 16.2819 85.6543 16.041C85.5436 15.7936 85.3711 15.6016 85.1367 15.4648C84.9089 15.3281 84.6126 15.2598 84.248 15.2598C83.9355 15.2598 83.6654 15.3151 83.4375 15.4258C83.2096 15.5299 83.0339 15.6829 82.9102 15.8848C82.7865 16.0801 82.7246 16.3112 82.7246 16.5781H79.9121C79.9121 16.1289 80.0163 15.7025 80.2246 15.2988C80.4329 14.8952 80.7357 14.5404 81.1328 14.2344C81.5299 13.9219 82.002 13.6777 82.5488 13.502C83.1022 13.3262 83.7207 13.2383 84.4043 13.2383C85.2246 13.2383 85.9538 13.375 86.5918 13.6484C87.2298 13.9219 87.7311 14.332 88.0957 14.8789C88.4668 15.4258 88.6523 16.1094 88.6523 16.9297V21.4512C88.6523 22.0306 88.6882 22.5059 88.7598 22.877C88.8314 23.2415 88.9355 23.5605 89.0723 23.834V24H86.2305C86.0938 23.7135 85.9896 23.3555 85.918 22.9258C85.8529 22.4896 85.8203 22.0534 85.8203 21.6172ZM86.1914 17.5645L86.2109 19.1562H84.6387C84.2676 19.1562 83.9453 19.1986 83.6719 19.2832C83.3984 19.3678 83.1738 19.4883 82.998 19.6445C82.8223 19.7943 82.6921 19.9701 82.6074 20.1719C82.5293 20.3737 82.4902 20.5951 82.4902 20.8359C82.4902 21.0768 82.5456 21.2949 82.6562 21.4902C82.7669 21.679 82.9264 21.8288 83.1348 21.9395C83.3431 22.0436 83.5872 22.0957 83.8672 22.0957C84.2904 22.0957 84.6582 22.0111 84.9707 21.8418C85.2832 21.6725 85.5241 21.4642 85.6934 21.2168C85.8691 20.9694 85.9603 20.735 85.9668 20.5137L86.709 21.7051C86.6048 21.972 86.4616 22.2487 86.2793 22.5352C86.1035 22.8216 85.8789 23.0918 85.6055 23.3457C85.332 23.5931 85.0033 23.7982 84.6191 23.9609C84.235 24.1172 83.7793 24.1953 83.252 24.1953C82.5814 24.1953 81.9727 24.0618 81.4258 23.7949C80.8854 23.5215 80.4557 23.1471 80.1367 22.6719C79.8242 22.1901 79.668 21.6432 79.668 21.0312C79.668 20.4779 79.7721 19.9863 79.9805 19.5566C80.1888 19.127 80.4948 18.7656 80.8984 18.4727C81.3086 18.1732 81.8197 17.9486 82.4316 17.7988C83.0436 17.6426 83.7533 17.5645 84.5605 17.5645H86.1914ZM93.5742 15.6895V24H90.7617V13.4336H93.3984L93.5742 15.6895ZM93.1641 18.3457H92.4023C92.4023 17.5645 92.5033 16.8613 92.7051 16.2363C92.9069 15.6048 93.1901 15.0677 93.5547 14.625C93.9193 14.1758 94.3522 13.834 94.8535 13.5996C95.3613 13.3587 95.9277 13.2383 96.5527 13.2383C97.0475 13.2383 97.5 13.3099 97.9102 13.4531C98.3203 13.5964 98.6719 13.8242 98.9648 14.1367C99.2643 14.4492 99.4922 14.8626 99.6484 15.377C99.8112 15.8913 99.8926 16.5195 99.8926 17.2617V24H97.0605V17.252C97.0605 16.7832 96.9954 16.4186 96.8652 16.1582C96.735 15.8978 96.543 15.7155 96.2891 15.6113C96.0417 15.5007 95.7357 15.4453 95.3711 15.4453C94.9935 15.4453 94.6647 15.5202 94.3848 15.6699C94.1113 15.8197 93.8835 16.028 93.7012 16.2949C93.5254 16.5553 93.3919 16.8613 93.3008 17.2129C93.2096 17.5645 93.1641 17.9421 93.1641 18.3457ZM108.271 21.6953V9H111.104V24H108.555L108.271 21.6953ZM101.592 18.8438V18.6387C101.592 17.8314 101.683 17.099 101.865 16.4414C102.048 15.7773 102.314 15.2077 102.666 14.7324C103.018 14.2572 103.451 13.8893 103.965 13.6289C104.479 13.3685 105.065 13.2383 105.723 13.2383C106.341 13.2383 106.882 13.3685 107.344 13.6289C107.812 13.8893 108.21 14.2604 108.535 14.7422C108.867 15.2174 109.134 15.7806 109.336 16.4316C109.538 17.0762 109.684 17.7826 109.775 18.5508V19C109.684 19.7357 109.538 20.4193 109.336 21.0508C109.134 21.6823 108.867 22.2357 108.535 22.7109C108.21 23.1797 107.812 23.5443 107.344 23.8047C106.875 24.0651 106.328 24.1953 105.703 24.1953C105.046 24.1953 104.46 24.0618 103.945 23.7949C103.438 23.528 103.008 23.1536 102.656 22.6719C102.311 22.1901 102.048 21.6237 101.865 20.9727C101.683 20.3216 101.592 19.612 101.592 18.8438ZM104.404 18.6387V18.8438C104.404 19.2799 104.437 19.6868 104.502 20.0645C104.574 20.4421 104.688 20.7773 104.844 21.0703C105.007 21.3568 105.215 21.5814 105.469 21.7441C105.729 21.9004 106.045 21.9785 106.416 21.9785C106.898 21.9785 107.295 21.8711 107.607 21.6562C107.92 21.4349 108.158 21.1322 108.32 20.748C108.49 20.3639 108.587 19.9212 108.613 19.4199V18.1406C108.594 17.7305 108.535 17.3626 108.438 17.0371C108.346 16.7051 108.21 16.4219 108.027 16.1875C107.852 15.9531 107.63 15.7708 107.363 15.6406C107.103 15.5104 106.794 15.4453 106.436 15.4453C106.071 15.4453 105.758 15.5299 105.498 15.6992C105.238 15.862 105.026 16.0866 104.863 16.373C104.707 16.6595 104.59 16.998 104.512 17.3887C104.44 17.7728 104.404 18.1895 104.404 18.6387ZM119.014 21.0801C119.014 20.8783 118.955 20.696 118.838 20.5332C118.721 20.3704 118.503 20.2207 118.184 20.084C117.871 19.9408 117.419 19.8105 116.826 19.6934C116.292 19.5762 115.794 19.4297 115.332 19.2539C114.876 19.0716 114.479 18.8535 114.141 18.5996C113.809 18.3457 113.548 18.0462 113.359 17.7012C113.171 17.3496 113.076 16.9492 113.076 16.5C113.076 16.0573 113.171 15.6406 113.359 15.25C113.555 14.8594 113.831 14.5143 114.189 14.2148C114.554 13.9089 114.997 13.6712 115.518 13.502C116.045 13.3262 116.637 13.2383 117.295 13.2383C118.213 13.2383 119.001 13.3848 119.658 13.6777C120.322 13.9707 120.83 14.3743 121.182 14.8887C121.54 15.3965 121.719 15.9759 121.719 16.627H118.906C118.906 16.3535 118.848 16.1094 118.73 15.8945C118.62 15.6732 118.444 15.5007 118.203 15.377C117.969 15.2467 117.663 15.1816 117.285 15.1816C116.973 15.1816 116.702 15.237 116.475 15.3477C116.247 15.4518 116.071 15.5951 115.947 15.7773C115.83 15.9531 115.771 16.1484 115.771 16.3633C115.771 16.526 115.804 16.6725 115.869 16.8027C115.941 16.9264 116.055 17.0404 116.211 17.1445C116.367 17.2487 116.569 17.3464 116.816 17.4375C117.07 17.5221 117.383 17.6003 117.754 17.6719C118.516 17.8281 119.196 18.0332 119.795 18.2871C120.394 18.5345 120.869 18.873 121.221 19.3027C121.572 19.7259 121.748 20.2826 121.748 20.9727C121.748 21.4414 121.644 21.8711 121.436 22.2617C121.227 22.6523 120.928 22.9941 120.537 23.2871C120.146 23.5736 119.678 23.7982 119.131 23.9609C118.59 24.1172 117.982 24.1953 117.305 24.1953C116.322 24.1953 115.488 24.0195 114.805 23.668C114.128 23.3164 113.613 22.8704 113.262 22.3301C112.917 21.7832 112.744 21.2233 112.744 20.6504H115.41C115.423 21.0345 115.521 21.3438 115.703 21.5781C115.892 21.8125 116.13 21.9818 116.416 22.0859C116.709 22.1901 117.025 22.2422 117.363 22.2422C117.728 22.2422 118.031 22.1934 118.271 22.0957C118.512 21.9915 118.695 21.8548 118.818 21.6855C118.949 21.5098 119.014 21.3079 119.014 21.0801Z" fill="black"/>
<path d="M11 0H19L8 36H0L11 0Z" fill="#01A4DC"/>
</svg>
